<?xml version="1.0" standalone="no"?>
<!DOCTYPE svg PUBLIC "-//W3C//DTD SVG 20010904//EN"
 "http://www.w3.org/TR/2001/REC-SVG-20010904/DTD/svg10.dtd">
<svg version="1.0" xmlns="http://www.w3.org/2000/svg"
 width="1024.000000pt" height="1024.000000pt" viewBox="0 0 1024.000000 1024.000000"
 preserveAspectRatio="xMidYMid meet">

<g transform="translate(0.000000,1024.000000) scale(0.100000,-0.100000)"
fill="#000000" stroke="none">
<path d="M2680 7054 c0 -3 8 -18 19 -32 23 -33 206 -340 285 -477 31 -55 75
-131 97 -170 23 -38 82 -142 132 -230 50 -88 118 -207 152 -265 34 -58 97
-166 140 -240 42 -74 108 -187 145 -250 68 -116 138 -238 259 -451 236 -417
307 -538 312 -539 4 0 35 48 69 108 35 59 107 182 161 273 137 232 130 201 73
305 -26 49 -64 116 -84 149 -20 33 -76 132 -125 220 -110 200 -302 536 -545
955 -37 63 -84 147 -105 185 -21 39 -46 81 -55 95 -10 14 -30 50 -45 80 -15
30 -59 108 -97 173 l-69 117 -359 0 c-198 0 -360 -3 -360 -6z"/>
<path d="M5571 6483 c12 -15 12 -16 -3 -10 -13 4 -15 2 -11 -10 5 -11 3 -14
-6 -8 -10 6 -11 3 -2 -13 13 -25 15 -43 2 -23 -14 22 -36 6 -51 -38 -7 -22
-16 -38 -20 -36 -5 3 -10 -2 -13 -9 -3 -8 -1 -17 6 -20 7 -3 6 -5 -3 -5 -9 -1
-30 -25 -47 -53 -16 -29 -53 -92 -82 -140 -28 -48 -51 -92 -51 -97 0 -6 25
-51 55 -101 30 -50 89 -157 132 -238 42 -81 93 -175 113 -209 l36 -63 44 78
c24 42 80 140 125 217 122 209 156 275 149 287 -5 7 -2 8 6 3 9 -6 10 -1 5 16
-4 17 -3 20 3 10 8 -11 13 -7 26 18 9 17 15 35 12 39 -3 4 0 14 6 22 8 12 8
11 3 -5 -5 -16 -4 -18 6 -7 10 9 10 15 1 24 -14 14 -16 32 -3 24 11 -7 24 21
25 56 1 20 -2 24 -11 16 -9 -7 -13 -7 -13 2 0 8 -3 11 -6 8 -3 -4 -1 -15 5
-26 10 -20 10 -20 -19 -6 -16 8 -32 24 -35 34 -7 22 -31 27 -38 8 -4 -9 -6 -9
-6 1 -1 16 -71 84 -71 70 0 -19 -21 -8 -32 17 -9 20 -18 25 -42 22 -28 -3 -31
1 -41 36 -7 25 -19 42 -33 47 -16 6 -22 5 -22 -6 0 -8 -4 -15 -10 -15 -5 0
-10 7 -10 15 0 8 -6 15 -14 15 -8 0 -16 6 -19 14 -4 9 -14 12 -29 9 -19 -5
-21 -3 -10 8 16 17 15 26 -4 33 -15 6 -15 4 -3 -11z"/>
<path d="M6370 6159 c0 -5 -4 -8 -8 -5 -4 2 -8 -4 -8 -15 0 -10 3 -19 7 -19 4
0 6 -8 4 -17 -1 -10 0 -12 2 -5 3 7 8 10 12 8 4 -3 5 11 3 30 -4 31 -12 48
-12 23z"/>
<path d="M6326 6038 c6 -21 6 -21 -11 -4 -14 13 -20 15 -29 5 -8 -8 -8 -13 2
-16 6 -3 12 -9 12 -14 0 -4 -6 -6 -13 -3 -8 3 -31 -26 -63 -81 -27 -47 -63
-107 -80 -133 -16 -26 -88 -148 -159 -272 -70 -124 -147 -258 -172 -298 l-43
-72 24 -39 c14 -21 68 -116 121 -211 53 -95 106 -189 119 -209 13 -20 38 -65
55 -99 17 -34 35 -62 40 -62 12 0 47 58 161 260 51 91 130 230 175 310 45 80
101 181 125 225 24 44 47 83 53 86 5 4 7 11 3 17 -3 6 0 16 7 24 8 7 12 19 9
27 -3 8 0 11 7 7 7 -5 9 -1 5 8 -4 11 0 16 10 16 15 0 21 12 17 34 -3 15 21
66 30 66 5 0 9 9 9 21 0 13 -4 18 -12 13 -7 -5 -9 -2 -6 8 4 8 -2 29 -13 47
-10 17 -16 37 -13 46 4 8 1 15 -5 15 -6 0 -8 7 -5 15 9 21 -14 45 -42 45 -13
0 -24 5 -24 10 0 6 6 10 14 10 9 0 12 7 9 20 -3 11 -9 20 -13 20 -4 0 -25 18
-48 40 -22 22 -50 40 -61 40 -12 0 -21 6 -21 13 0 18 -43 53 -48 39 -6 -20
-22 -14 -22 8 0 18 -10 25 -32 21 -5 0 -8 4 -8 10 0 5 -5 7 -10 4 -6 -4 -8
-10 -5 -15 3 -4 -4 -6 -15 -3 -11 3 -20 9 -20 14 0 5 -5 9 -11 9 -6 0 -8 -9
-3 -22z"/>
<path d="M4496 5657 c3 -10 9 -15 12 -12 3 3 0 11 -7 18 -10 9 -11 8 -5 -6z"/>
<path d="M4592 5485 c7 -21 69 -135 73 -135 3 0 1 9 -5 19 -5 11 -10 32 -11
48 0 15 -3 22 -6 15 -3 -9 -14 0 -30 25 -13 21 -23 34 -21 28z"/>
<path d="M5309 5439 c5 -15 7 -29 4 -32 -2 -3 0 -14 7 -24 9 -16 10 -15 5 7
-5 21 -4 22 5 7 6 -9 8 -27 5 -38 -5 -15 -4 -19 4 -15 6 4 11 0 11 -9 0 -10 5
-13 12 -9 8 5 9 0 6 -14 -4 -12 -2 -20 3 -16 9 5 12 -12 10 -56 -1 -15 7 -34
18 -45 12 -10 21 -24 21 -32 0 -16 17 -17 23 0 3 6 3 -5 1 -25 -2 -23 0 -38 7
-38 5 0 7 5 3 12 -4 7 -3 8 4 4 9 -5 7 -17 -4 -44 -9 -20 -16 -41 -16 -47 1
-5 2 -30 3 -54 1 -30 4 -39 11 -30 8 13 5 -58 -8 -138 -5 -33 -4 -33 36 -33
37 0 40 -2 40 -29 0 -26 -4 -29 -40 -35 -38 -6 -40 -8 -38 -39 l3 -32 -85 3
c-54 3 -91 9 -101 18 -8 8 -29 14 -45 14 -16 0 -38 7 -48 15 -16 12 -22 12
-28 2 -5 -8 -8 -4 -8 11 0 12 -5 22 -10 22 -6 0 -8 -11 -4 -27 l6 -28 -17 23
c-9 12 -14 26 -11 31 4 5 -1 24 -11 43 -9 18 -20 41 -25 50 -4 10 -8 32 -8 48
0 17 -4 29 -9 26 -4 -3 -6 -17 -3 -31 3 -19 0 -25 -13 -25 -12 0 -16 7 -14 28
2 15 0 33 -5 40 -5 8 -4 18 2 24 8 8 8 17 1 30 -5 10 -7 22 -4 27 7 12 -15 61
-27 61 -4 0 -8 -10 -9 -22 -1 -22 -1 -22 -9 2 -4 14 -8 19 -9 13 -1 -7 -6 -13
-12 -13 -6 0 -9 6 -6 14 3 7 1 18 -5 24 -8 8 -8 15 1 26 8 10 9 16 1 21 -6 3
-8 11 -5 16 4 5 1 9 -5 9 -8 0 -10 -9 -6 -25 7 -28 1 -32 -19 -12 -7 8 -11 27
-9 43 3 28 3 28 -5 4 l-9 -25 -1 26 c-1 26 -28 59 -49 59 -7 0 -12 7 -12 16 0
9 -6 14 -12 11 -7 -2 -13 -13 -13 -24 0 -12 -4 -25 -9 -30 -5 -5 -7 -1 -3 10
4 9 2 17 -3 17 -18 0 -10 -22 46 -122 50 -88 54 -101 42 -116 -8 -9 -46 -71
-85 -137 -39 -66 -139 -237 -223 -380 -84 -143 -166 -282 -183 -310 -16 -27
-60 -102 -97 -165 -242 -416 -451 -773 -480 -818 -18 -29 -31 -55 -28 -57 3
-3 352 -7 776 -8 l770 -3 16 30 c9 17 39 67 66 111 28 44 64 107 81 140 36 69
88 158 134 230 18 28 54 88 80 135 89 159 139 245 217 377 43 72 78 138 78
146 0 9 -48 100 -106 204 -59 103 -173 305 -254 448 -81 143 -182 323 -225
400 -78 141 -105 183 -86 134z m88 -221 c-3 -8 -6 -5 -6 6 -1 11 2 17 5 13 3
-3 4 -12 1 -19z m-517 -146 c0 -13 -3 -12 -15 4 -19 25 -19 40 0 24 8 -7 15
-20 15 -28z m-30 -2 c0 -5 -4 -10 -10 -10 -5 0 -10 5 -10 10 0 6 5 10 10 10 6
0 10 -4 10 -10z m627 -12 c-3 -8 -6 -5 -6 6 -1 11 2 17 5 13 3 -3 4 -12 1 -19z
m50 -160 c-3 -8 -6 -5 -6 6 -1 11 2 17 5 13 3 -3 4 -12 1 -19z m-50 -90 c-3
-8 -6 -5 -6 6 -1 11 2 17 5 13 3 -3 4 -12 1 -19z m-97 -193 l25 -14 -32 -1
c-23 0 -33 5 -33 15 0 18 8 18 40 0z m-63 -197 c5 -7 7 -89 5 -181 l-4 -168
-121 3 -121 3 -3 150 c-4 197 -6 193 60 198 122 8 175 7 184 -5z"/>
<path d="M4695 5324 c2 -21 15 -59 29 -84 25 -44 33 -46 17 -5 -5 12 -4 26 3
34 9 12 8 14 -6 9 -22 -9 -30 2 -15 20 10 13 9 15 -5 9 -10 -3 -18 -2 -18 2 0
5 6 11 13 14 9 3 8 9 -5 22 -16 17 -17 16 -13 -21z"/>
<path d="M4770 5266 c0 -8 4 -17 9 -20 5 -4 7 3 4 14 -6 23 -13 26 -13 6z"/>
<path d="M4750 5255 c0 -5 5 -17 10 -25 5 -8 10 -10 10 -5 0 6 -5 17 -10 25
-5 8 -10 11 -10 5z"/>
<path d="M4901 5184 c0 -11 3 -14 6 -6 3 7 2 16 -1 19 -3 4 -6 -2 -5 -13z"/>
</g>
</svg>
